<svg id="Layer_1" data-name="Layer 1" xmlns="http://www.w3.org/2000/svg" viewBox="0 0 26 26"><defs><style>.cls-1{fill:#27a74a;}.cls-2{fill:#fff;}.cls-3{fill:none;stroke:#fff;stroke-miterlimit:10;stroke-width:2px;}</style></defs><title>Add To Order_New</title><rect class="cls-1" width="26" height="26"/><path class="cls-2" d="M16.46,5.69a.29.29,0,0,0-.21.09.27.27,0,0,0,0,.38h0l1.18,1.18-5.22,5.21,1.58,1.59L19,8.94l1.18,1.18a.28.28,0,0,0,.4,0,.28.28,0,0,0,.08-.2V6a.3.3,0,0,0-.28-.29Z"/><polyline class="cls-3" points="13.7 6.7 6.36 6.7 6.36 19.25 19.7 19.25 19.7 12.38"/></svg>